PathFileType	4	(X/Y/Z)	E:\3-PhD\Data\MocapData\ElaboratedData\009\pre\dynamicElaborations\Run_baseline2\Run_baseline2.trc
DataRate	CameraRate	NumFrames	NumMarkers	Units	OrigDataRate	DataStartFrame
200	200	5	54	mm	200	739
Frame#	Time	FHD			LBHD			RBHD			C7			T10			CLAV			LSHO			LUUPA			LMUPA			LDUPA			LLEP			LMEP			LRAD			LUL			LRFIN			RSHO			RUPA1			RMUPA			RDUPA			RLEP			RMEP			RRAD			RUL			RUFIN			RASI			USACR			LSACR			RSACR			LTHI1			LTHI2			LTHI3			LTHI4			LTIB1			LTIB2			LTIB3			LTIB4			LLMAL			LHEE			LMT1			LMT2			RTHI			RTHI2			RTHI3			RTHI4			RLFC			RTIB1			RTIB2			RTIB3			RTIB4			RLMAL			RHEE			RMT1			RMT2			RMT5		
		X1	Y1	Z1	X2	Y2	Z2	X3	Y3	Z3	X4	Y4	Z4	X5	Y5	Z5	X6	Y6	Z6	X7	Y7	Z7	X8	Y8	Z8	X9	Y9	Z9	X10	Y10	Z10	X11	Y11	Z11	X12	Y12	Z12	X13	Y13	Z13	X14	Y14	Z14	X15	Y15	Z15	X16	Y16	Z16	X17	Y17	Z17	X18	Y18	Z18	X19	Y19	Z19	X20	Y20	Z20	X21	Y21	Z21	X22	Y22	Z22	X23	Y23	Z23	X24	Y24	Z24	X25	Y25	Z25	X26	Y26	Z26	X27	Y27	Z27	X28	Y28	Z28	X29	Y29	Z29	X30	Y30	Z30	X31	Y31	Z31	X32	Y32	Z32	X33	Y33	Z33	X34	Y34	Z34	X35	Y35	Z35	X36	Y36	Z36	X37	Y37	Z37	X38	Y38	Z38	X39	Y39	Z39	X40	Y40	Z40	X41	Y41	Z41	X42	Y42	Z42	X43	Y43	Z43	X44	Y44	Z44	X45	Y45	Z45	X46	Y46	Z46	X47	Y47	Z47	X48	Y48	Z48	X49	Y49	Z49	X50	Y50	Z50	X51	Y51	Z51	X52	Y52	Z52	X53	Y53	Z53	X54	Y54	Z54	

746	3.725000	-518.210236	1433.124825	181.332032	-715.612701	1422.659192	152.783070	-641.443563	1416.639734	253.635673	-752.728843	1313.685724	165.274838	-992.074013	1056.289452	140.312674	-682.011959	1171.987142	165.901798	-668.589513	1214.075647	24.232307	-791.911510	1105.915236	-103.421262	-799.347126	1063.174366	-81.371977	-839.545991	1059.573056	-125.842441	-939.688484	1005.123547	-165.247608	-989.123760	1033.387764	-114.697909	-1015.309525	762.553924	-87.349037	-1063.824158	768.468956	-142.171407	-1015.826978	685.820107	-99.661970	-713.298047	1232.228498	332.310556	-805.860499	1152.977158	461.657027	-792.883487	1108.862943	469.053372	-838.404493	1116.857433	512.077256	-898.077037	1021.096206	586.880909	-940.733854	990.099673	537.421851	-711.223831	837.126291	539.201458	-742.714821	812.407411	596.836665	-644.100656	814.593802	575.944373	-848.182231	883.752803	264.547990	-1039.737966	959.832487	160.189804	-1050.442342	922.182386	142.484888	-1042.264263	937.502250	198.793682	-841.261463	619.318141	-4.808423	-764.593032	583.168248	-17.203797	-729.991811	617.229619	-15.648615	-745.774059	526.653075	-1.912851	-700.376052	342.334584	124.815335	-784.581159	352.152440	102.266413	-755.385449	329.713280	126.305553	-800.723417	300.659745	194.351886	-946.490564	273.724715	251.435223	-1011.770827	320.144967	318.450695	-854.330896	160.402884	325.882213	-864.978706	154.248814	279.724485	-804.035262	701.207524	401.281778	-746.931678	669.650385	404.896871	-718.382973	678.727030	389.788938	-738.724297	584.357117	416.364049	-675.399216	496.345541	427.863820	-651.651591	283.987702	466.947873	-720.783214	237.822191	537.744776	-680.818324	223.159154	518.757291	-684.872700	167.866303	507.477133	-748.772638	100.841936	579.839533	-823.299995	48.310779	561.087068	-599.545882	57.100724	520.039214	-596.329038	57.658839	560.666448	-630.414377	35.726847	619.787335	
747	3.730000	-494.599206	1429.177350	172.156746	-692.606841	1417.786804	147.989055	-616.134315	1412.350710	247.219488	-729.130133	1309.486882	160.206297	-969.540580	1052.977299	137.181137	-658.936514	1166.927630	160.803282	-646.128898	1207.606088	18.723641	-771.964638	1097.014322	-105.603925	-779.349777	1055.021161	-82.229022	-820.120803	1050.211859	-126.074346	-920.819726	995.390722	-162.609537	-969.305398	1025.581611	-112.525744	-1006.948993	756.978016	-82.072013	-1054.658046	764.711666	-137.579134	-1011.468456	679.682512	-93.399594	-688.625736	1226.702280	328.251136	-777.636796	1142.273248	457.137644	-762.984016	1098.510413	463.525778	-808.001815	1103.655523	506.413499	-863.296341	1004.392648	580.080950	-906.563701	973.911772	531.358481	-673.752303	827.108595	524.839151	-703.441951	799.769039	582.480709	-605.705775	805.633711	560.106701	-826.077668	879.897739	261.842377	-1017.381745	956.001410	157.386510	-1028.166688	918.230266	140.055791	-1019.815432	933.983286	196.287219	-817.805569	617.228713	-9.685387	-740.603796	582.884147	-23.881255	-706.763323	617.743882	-22.889863	-720.236317	526.812693	-9.036762	-669.814351	344.937232	116.511813	-754.449914	353.717284	95.530593	-724.527866	331.736497	119.144476	-768.149917	301.922357	188.111054	-912.124051	272.856833	248.307786	-976.667924	317.827578	317.132328	-816.171720	161.141410	320.172535	-827.895038	154.895570	274.174713	-784.598811	696.531020	400.048821	-727.893043	664.365504	404.511022	-698.954358	673.281068	390.254000	-720.711333	578.918029	415.424524	-657.794965	491.091620	427.530790	-642.464843	278.035326	467.105609	-714.546555	235.280152	537.345569	-675.048431	218.838930	518.902435	-681.479622	163.597255	507.586274	-748.657499	99.734092	579.811635	-824.208194	47.242742	561.376804	-600.380945	57.039134	520.167313	-597.239107	57.652573	560.856905	-631.169814	35.751568	620.183399	
748	3.735000	-471.265315	1425.519298	162.561500	-669.799265	1413.185616	142.754159	-591.065799	1408.430492	240.342496	-705.640466	1305.571020	154.976894	-947.071359	1049.883973	133.676785	-635.994174	1162.030739	155.397233	-623.893729	1201.518793	12.986253	-752.345750	1089.354110	-108.123312	-759.589016	1047.984210	-83.654411	-801.099136	1042.356585	-126.737184	-902.387160	987.223256	-160.434009	-949.814862	1018.771561	-110.422460	-997.042292	752.554348	-77.581283	-1044.171091	761.891151	-133.518952	-1005.092860	674.915885	-88.153523	-663.711261	1221.470420	323.837852	-749.262136	1132.066474	451.839249	-732.885001	1088.742337	457.312730	-777.512563	1091.127042	500.002763	-828.120051	988.141891	572.246429	-871.918040	958.125178	524.133483	-636.001203	818.082409	509.418465	-663.781026	788.021739	566.853290	-567.016814	797.755121	543.138124	-804.255263	876.356996	259.076755	-995.131318	952.326272	154.005828	-1005.970495	914.447763	136.985933	-997.587431	930.590333	193.136763	-794.682492	615.503062	-14.685240	-716.998980	583.047173	-30.664729	-683.976323	618.705107	-30.283026	-695.042636	527.485656	-16.307175	-638.902261	347.652369	108.041369	-723.996807	355.118623	88.829385	-693.272863	333.630566	111.875799	-734.855096	302.926201	181.710289	-876.633277	270.942862	245.272653	-940.446518	314.173763	315.963876	-776.423811	161.295427	314.288735	-789.270397	154.885297	268.535015	-765.358881	692.536355	398.662564	-709.059213	659.802498	403.941694	-679.784232	668.514943	390.359988	-702.922972	574.249454	414.706123	-640.630672	486.377369	427.459733	-633.577627	272.725263	467.539602	-708.315627	233.328531	537.168764	-669.335579	215.222393	519.253086	-678.052041	160.111418	507.789292	-748.270412	99.358930	579.833695	-824.843145	46.921926	561.445098	-600.914719	57.091716	520.218274	-597.870005	57.731229	560.985983	-631.760745	35.886007	620.447569	
749	3.740000	-448.186995	1422.168731	152.606618	-647.165541	1408.901085	137.095523	-566.236258	1404.906069	233.040171	-682.257501	1301.964500	149.584312	-924.640233	1047.003929	129.791584	-613.162712	1157.335288	149.666204	-601.906535	1195.916034	6.988113	-733.027500	1082.944395	-111.071095	-740.076548	1042.073140	-85.702507	-782.439298	1035.977667	-127.940054	-884.370628	980.666045	-158.874383	-930.623060	1013.076803	-108.538916	-985.519121	749.156026	-73.925415	-1032.366395	759.880655	-129.994458	-996.598052	671.339979	-83.957875	-638.558294	1216.588724	319.015971	-720.805859	1122.473106	445.783574	-702.700933	1079.661963	450.426384	-747.051554	1079.421940	492.945466	-792.703463	972.556772	563.405041	-836.925623	942.955196	515.713437	-598.099684	810.263669	492.871462	-623.818509	777.414897	549.876862	-528.139814	791.183649	524.931428	-782.692103	873.206079	256.229128	-972.940305	948.866689	150.061610	-983.809993	910.902773	133.258522	-975.536742	927.357057	189.330910	-771.917568	614.172590	-19.800478	-693.817022	583.664893	-37.527230	-661.658946	620.109482	-37.782743	-670.252661	528.670329	-23.701579	-607.710099	350.456763	99.421556	-693.273633	356.325358	82.169356	-661.693260	335.370930	104.496871	-700.905515	303.700176	175.128439	-840.049612	268.073707	242.282470	-903.108920	309.302443	314.867691	-735.193449	160.986828	308.198508	-749.195495	154.324041	262.783171	-746.275698	689.198919	397.149902	-690.410883	655.903508	403.219616	-660.841403	664.344740	390.119222	-685.387843	570.290240	414.226352	-623.982609	482.061815	427.678612	-625.058423	267.947250	468.275787	-702.206937	231.801720	537.206044	-663.764451	212.159370	519.815679	-674.636838	157.247455	508.108268	-747.706070	99.546517	579.909651	-825.219045	47.172915	561.303794	-601.170656	57.183051	520.247105	-598.240588	57.821238	561.098482	-632.196154	36.043773	620.630664	
750	3.745000	-425.335702	1419.152692	142.357143	-624.678021	1404.984930	131.038085	-541.636095	1401.799091	225.352149	-658.983900	1298.689407	144.017562	-902.214529	1044.324096	125.548528	-590.408085	1152.887108	143.587453	-580.190270	1190.895200	0.686054	-713.983663	1077.771462	-114.518108	-720.818569	1037.283344	-88.417133	-764.089782	1031.011990	-129.771973	-866.745293	975.701730	-158.059700	-911.707693	1008.565862	-107.041251	-972.352632	746.655996	-71.139556	-1019.262890	758.549358	-127.017897	-985.934039	668.780874	-80.818683	-613.175201	1212.112839	313.728568	-692.310198	1113.575087	439.017353	-672.524839	1071.332480	442.891563	-716.705504	1068.621964	485.301699	-757.192854	957.820171	553.577276	-801.730487	928.603245	506.098963	-560.200991	803.852729	475.146598	-583.669938	768.194002	531.501037	-489.217809	786.137007	505.409997	-761.354108	870.510473	253.296703	-950.760017	945.671149	145.620864	-961.637828	907.649199	128.925818	-953.599634	924.317218	184.926933	-749.508287	613.239243	-25.015837	-671.064581	584.714689	-44.445182	-639.807269	621.926786	-45.335737	-645.894954	530.331759	-31.193350	-576.304688	353.324147	90.664288	-662.321748	357.302246	75.551880	-629.842530	336.942700	97.004399	-666.350500	304.264791	168.355475	-802.402298	264.366624	239.283971	-864.649360	303.366407	313.771598	-692.603455	160.338930	301.856905	-707.772932	153.331115	256.875827	-727.347441	686.414627	395.555599	-671.974384	652.517148	402.408938	-642.133672	660.592632	389.620500	-668.196190	566.880016	413.967266	-607.980773	477.956217	428.207197	-616.964561	263.594642	469.311830	-696.328215	230.553388	537.436871	-658.418942	209.507056	520.577442	-671.290718	154.852916	508.558092	-747.048008	100.126436	580.036927	-825.375647	47.841819	560.983611	-601.206961	57.267114	520.305273	-598.396913	57.881423	561.233135	-632.503997	36.166247	620.775100	
